<?xml version="1.0" encoding="UTF-8" standalone="no"?>
<svg
   width="1260"
   height="630"
   version="1.1"
   id="svg1212"
   xmlns="http://www.w3.org/2000/svg"
   xmlns:svg="http://www.w3.org/2000/svg">
  <defs
     id="defs1187">
    <clipPath
       id="a">
      <path
         fill="#00f"
         fill-rule="evenodd"
         d="M0 0h1260v630H0z"
         id="path1184" />
    </clipPath>
  </defs>
  <path
     d="M0 0h1260v630H0z"
     fill="#006400"
     id="path1189" />
  <path
     d="M0 90h1260v450H0z"
     fill="#ffd200"
     id="path1191" />
  <path
     d="M0 180h1260v270H0z"
     fill="#d40000"
     id="path1193" />
  <path
     d="M0 270h1260v90H0z"
     id="path1195" />
  <path
     d="M0 0v630l420-315z"
     clip-path="url(#a)"
     stroke="#000"
     stroke-width="30"
     id="path1197" />
  <path
     d="M0 0v630l420-315z"
     fill="#fff"
     id="path1199" />
  <path
     d="M159.78 156.622l83.19 256.028L25.179 254.416h269.203L76.592 412.65z"
     fill="#d40000"
     id="path1201" />
  <path
     d="m 152.54223,215.85126 c -2.97424,-3.40609 -7.37736,-5.2147 -11.88739,-4.88133 -4.50964,0.3326 -8.59932,2.76886 -11.04094,6.5746 -2.58953,-0.0628 -5.17906,0.12722 -7.73142,0.56596 -2.38759,0.41077 -4.45868,1.88371 -5.62968,4.00499 -1.17215,2.12014 -1.31546,4.65832 -0.39199,6.89724 l 8.72424,-0.51729 c 3.5743,2.01706 5.83046,5.75919 5.94771,9.86151 l 0.98286,34.66782 c -1.68561,3.48195 -2.53703,7.30877 -2.48837,11.17774 0.0598,4.65755 0.42916,9.30514 1.10816,13.91402 0.68091,4.62805 -0.8407,9.30744 -4.11344,12.64954 -5.07253,5.17982 -9.48332,10.96929 -13.13081,17.23428 -2.80027,4.81312 -2.30712,10.8597 1.23614,15.15438 l 9.94045,38.46167 h 74.60665 l 4.14026,-32.63312 c 1.75765,-13.85426 9.65728,-26.18038 21.51095,-33.56311 l 2.93593,0.83342 c 1.97222,0.55905 4.06438,-0.35521 4.99321,-2.18336 0.92845,-1.82815 0.43338,-4.05788 -1.18211,-5.32122 l -70.57559,-55.18748 -1.85498,-23.22798 c -0.42801,-5.35724 -2.56654,-10.43399 -6.09984,-14.48228"
     style="fill:#ffd200;fill-opacity:1;fill-rule:evenodd;stroke:none"
     id="path636" />
  <path
     d="m 151.82722,216.4835 -0.0586,-0.0663 1.42965,-1.26411 0.0586,0.0663 z m -0.0586,-0.0663 c -0.38548,-0.43644 -0.80583,-0.85142 -1.24802,-1.23728 l 1.25798,-1.43808 c 0.49431,0.43146 0.97098,0.90392 1.41969,1.41125 z m 0.0115,-2.67842 v 0.003 l -0.6288,0.71923 z m -1.25798,1.44459 c -0.44296,-0.38548 -0.90584,-0.73878 -1.3783,-1.0526 l 1.05566,-1.59441 c 0.55638,0.36938 1.08517,0.77134 1.58062,1.20242 z m -1.3783,-1.0526 c -2.45158,-1.62928 -5.40897,-2.42438 -8.41999,-2.20252 l -0.13488,-1.91628 c 3.42716,-0.2529 6.80412,0.65945 9.61053,2.52439 z m -8.41999,-2.20252 -0.0881,0.008 -0.13449,-1.91629 0.0877,-0.008 z m -0.2303,-1.90977 h 0.008 l 0.0674,0.95795 z m 0.14983,1.91629 c -0.61041,0.0475 -1.19131,0.13219 -1.73581,0.24868 l -0.39735,-1.87068 c 0.67133,-0.14331 1.33614,-0.24332 1.98333,-0.29429 z m -1.73581,0.24868 c -0.56787,0.12032 -1.12731,0.28011 -1.67028,0.47246 l -0.63646,-1.80324 c 0.61999,-0.21918 1.2599,-0.40081 1.90939,-0.5399 z m -1.67028,0.47246 c -2.77729,0.98286 -5.18979,2.86964 -6.81715,5.40475 l -1.60936,-1.0319 c 1.85843,-2.89684 4.61502,-5.05299 7.79005,-6.17609 z m -6.81715,5.40475 -0.82767,0.44219 0.023,-0.95833 z m -0.82767,0.44219 c -0.0931,-0.002 -0.19006,-0.004 -0.25596,-0.004 l 0.023,-1.9159 c 0.11304,10e-4 0.19887,0.004 0.28049,0.004 l -0.046,1.91629 z m -0.25596,-0.004 h -0.004 l 0.0153,-0.95795 z m -0.004,0 c -0.35176,-0.004 -0.70582,-0.008 -1.05337,-0.004 l -0.0153,-1.9159 c 0.36708,-0.003 0.73762,-0.002 1.09934,0.004 z m -1.05337,-0.004 c -0.3326,0.002 -0.68665,0.0115 -1.04953,0.023 l -0.067,-1.9159 c 0.35176,-0.0115 0.71999,-0.023 1.10126,-0.023 z m -1.04953,0.023 c -1.74538,0.0621 -3.48118,0.24332 -5.18404,0.53569 l -0.32187,-1.88563 c 1.80746,-0.31076 3.6268,-0.50082 5.43886,-0.56596 z m -5.18404,0.53569 -0.0383,0.008 -0.32149,-1.88563 0.0383,-0.008 0.32187,1.88563 z m -0.36402,-1.87912 h 0.004 l 0.16094,0.94262 -0.16515,-0.94262 z m 0.3303,1.88563 c -0.30003,0.0521 -0.59009,0.12377 -0.86483,0.20845 l -0.56021,-1.827 c 0.36249,-0.11189 0.73072,-0.20309 1.09474,-0.26708 z m -0.86483,0.20845 c -0.27053,0.0835 -0.54642,0.19121 -0.81886,0.31382 l -0.78628,-1.74423 c 0.32991,-0.14906 0.67861,-0.28355 1.04493,-0.39659 z m -1.60859,-1.43041 h 0.003 l 0.39314,0.87212 z m 0.7928,1.74423 c -1.35876,0.61807 -2.50332,1.66185 -3.23787,2.99379 l -1.6768,-0.92117 c 0.93726,-1.70093 2.39373,-3.03172 4.12187,-3.81685 z m -4.91812,2.08029 0.003,-0.008 0.8384,0.46059 z m 1.6837,0.90583 -0.0521,0.0966 -1.68369,-0.90584 0.0521,-0.0966 z m -1.73581,-0.80506 v -0.004 l 0.84185,0.45292 -0.84185,-0.4487 z m 1.68369,0.89741 c -0.13258,0.24868 -0.25634,0.51921 -0.36517,0.80583 l -1.78753,-0.68206 c 0.12568,-0.3326 0.28547,-0.6767 0.46901,-1.02118 z m -2.1527,0.12798 v -0.004 l 0.89357,0.34103 -0.89357,-0.33681 z m 1.78753,0.67363 c -0.10422,0.27666 -0.19312,0.55906 -0.26286,0.8407 l -1.85497,-0.45637 c 0.0877,-0.35827 0.19964,-0.71348 0.3303,-1.05796 z m -2.11783,0.38778 v -0.003 l 0.92768,0.22799 z m 1.85497,0.44947 c -0.35061,1.43156 -0.24408,2.95777 0.32915,4.35024 l -1.76607,0.72536 c -0.72881,-1.76914 -0.86331,-3.70573 -0.41805,-5.52507 z m -0.49737,5.67106 -0.93955,-0.59546 0.88323,-0.36249 z m -0.11303,-1.9159 8.72424,-0.51729 0.11303,1.91628 -8.72424,0.51691 z m 8.72424,-0.51729 0.52035,0.12377 -0.46364,0.83418 z m 0.52035,0.12377 c 0.13028,0.0728 0.187,0.10537 0.22033,0.12491 l -0.97519,1.64653 c -0.097,-0.0567 -0.17511,-0.10346 -0.17511,-0.10346 l 0.92767,-1.66837 z m 0.22033,0.12491 c 0.52687,0.31076 1.03114,0.66176 1.50437,1.04302 l -1.19667,1.49019 c -0.39889,-0.32149 -0.82767,-0.61922 -1.28059,-0.8863 z m 1.50437,1.04302 c 0.47169,0.38011 0.91695,0.79395 1.32542,1.23499 l -1.39899,1.30128 c -0.34563,-0.37284 -0.7223,-0.72345 -1.1231,-1.04608 z m 1.32542,1.23499 c 2.06802,2.22091 3.30301,5.1507 3.3919,8.26672 l -1.9159,0.0521 c -0.0751,-2.6493 -1.12195,-5.13537 -2.87499,-7.01755 z m 3.3919,8.26672 0.98324,34.66743 -1.91628,0.0525 -0.98286,-34.66782 z m 0.98324,34.66743 -0.0977,0.44104 -0.86062,-0.4146 0.95833,-0.0268 z m -0.0977,0.44104 c -0.0556,0.11534 -0.13373,0.28164 -0.2119,0.45215 l -1.7358,-0.80161 c 0.0628,-0.13794 0.13373,-0.28815 0.22684,-0.48012 z m -1.9477,-0.34524 v -0.004 l 0.8679,0.40081 -0.8679,-0.39659 z m 1.7358,0.7928 c -0.21075,0.45943 -0.41077,0.93764 -0.59737,1.42198 l -1.78141,-0.68858 c 0.19428,-0.50503 0.40962,-1.01696 0.64298,-1.5262 z m -2.38223,0.73647 0.003,-0.003 0.89051,0.3441 z m 1.78792,0.68206 c -0.18354,0.47897 -0.35176,0.96446 -0.50388,1.4511 l -1.827,-0.56902 c 0.164,-0.52458 0.34524,-1.048 0.54296,-1.56414 z m -0.50388,1.4511 c -0.74528,2.39411 -1.11237,4.90547 -1.08095,7.43522 l -1.9159,0.023 c -0.0345,-2.72402 0.36287,-5.43502 1.16985,-8.0257 l 1.827,0.56902 z m -1.08095,7.43522 c 0.001,0.1617 0.004,0.32685 0.008,0.50388 l -1.9159,0.0307 c -0.002,-0.15979 -0.004,-0.33758 -0.008,-0.5127 l 1.9159,-0.023 z m 0.008,0.50388 c 0.0115,0.62114 0.0268,1.26296 0.0521,1.9159 l -1.9159,0.0674 c -0.023,-0.63225 -0.0414,-1.28595 -0.0521,-1.95307 l 1.9159,-0.0306 z m 0.0521,1.9159 c 0.0191,0.61041 0.0513,1.25032 0.0881,1.91513 l -1.9159,0.10423 c -0.0345,-0.62152 -0.0644,-1.27407 -0.0881,-1.95192 z m 0.0881,1.91513 c 0.17396,3.1781 0.49085,6.3332 0.94913,9.4519 l -1.89405,0.27589 c -0.47132,-3.2076 -0.79625,-6.42056 -0.97098,-9.62356 z m 0.94913,9.4519 0.008,0.0445 -1.89406,0.27589 -0.008,-0.0445 z m 0.008,0.0445 v 0.003 l -0.94684,0.13488 z m 0,0.003 c 0.10001,0.69317 0.15442,1.38519 0.16323,2.06495 l -1.91628,0.023 c -0.008,-0.60849 -0.0552,-1.21774 -0.14101,-1.81742 l 1.89406,-0.26937 z m 0.16323,2.06495 c 0.008,0.6767 -0.0268,1.36221 -0.10652,2.04312 l -1.90096,-0.21727 c 0.0674,-0.58741 0.0989,-1.1936 0.0912,-1.80401 l 1.91628,-0.023 z m -0.10652,2.04312 c -0.40426,3.46701 -1.94426,6.75048 -4.44259,9.30207 L 125.345,310.0959 c 2.19485,-2.24199 3.54824,-5.12886 3.90345,-8.17898 z m -4.44259,9.30207 -0.003,0.008 -0.67785,-0.67784 z m -0.003,0.008 c -0.0268,0.0268 0.1617,-0.21419 0.11073,-0.13679 l -1.59441,-1.06256 c 0.0552,-0.0835 0.0931,-0.12147 0.12798,-0.15634 z m 0.11073,-0.13679 -0.11648,0.13871 -0.68091,-0.67018 z m -0.11648,0.13871 c -0.65677,0.67133 -1.3465,1.40244 -2.06458,2.18757 l -1.41431,-1.29438 c 0.64834,-0.70965 1.35454,-1.45455 2.11707,-2.23355 z m -3.47889,0.89626 v -0.003 l 0.70696,0.64719 z m 1.41431,1.28825 c -0.69202,0.75793 -1.35875,1.51318 -1.9933,2.25693 l -1.4511,-1.24265 c 0.679,-0.79587 1.35761,-1.56606 2.03009,-2.30253 z m -3.44861,1.01428 h 0.004 l 0.72574,0.62151 -0.72996,-0.62151 z m 1.45991,1.24265 c -3.34554,3.93104 -6.33473,8.1464 -8.92311,12.59205 l -1.65304,-0.95794 c 2.65889,-4.56713 5.71207,-8.87713 9.11624,-12.87676 z m -10.58074,11.63411 h 0.004 l 0.82652,0.47897 -0.83112,-0.47897 z m 1.66185,0.95794 -0.0383,0.0644 -1.66185,-0.95833 0.0383,-0.064 z m -0.0383,0.0644 c -0.36594,0.63646 -0.66712,1.28595 -0.90277,1.93314 l -1.79635,-0.65179 c 0.2824,-0.77747 0.6288,-1.52927 1.03727,-2.23968 z m -0.90277,1.93314 c -0.24102,0.66482 -0.42457,1.34496 -0.54603,2.02357 l -1.87912,-0.33681 c 0.14216,-0.79395 0.35291,-1.57794 0.6288,-2.33855 z m -0.54603,2.02357 c -0.6311,3.50418 0.27244,7.19382 2.62823,10.04851 l -1.47486,1.212 c -2.71751,-3.29343 -3.76053,-7.55324 -3.03249,-11.59732 z m 2.62823,10.04851 0.18699,0.36594 -0.92423,0.23987 z m 0.18699,0.36594 9.94083,38.46168 -1.84884,0.48012 -9.94083,-38.46168 z m 9.01622,39.6595 -0.92423,-0.7177 0.92423,-0.24025 z m 0,-1.9159 h 74.60665 v 1.9159 h -74.60665 z m 75.55349,1.0775 -0.94684,0.8384 v -0.95795 z m -1.89406,-0.2391 4.14026,-32.63313 1.89444,0.2391 -4.14064,32.63313 z m 6.03815,-32.39748 -0.003,0.003 -0.94722,-0.11955 z m -1.90096,-0.23221 c 0.0153,-0.11648 -0.0268,0.23336 0.0115,-0.0586 l 1.89444,0.24753 c -0.0345,0.25942 0.0153,-0.10767 -0.003,0.0433 l -1.90095,-0.23221 z m 1.90402,0.1847 v 0.004 l -0.94722,-0.12377 0.94722,0.11955 z m -1.89444,-0.23911 c 0.25443,-1.99215 0.6311,-3.94177 1.11889,-5.83161 l 1.85535,0.47131 c -0.47591,1.8431 -0.83954,3.7157 -1.0798,5.59941 z m 1.11889,-5.83161 c 0.49315,-1.91169 1.10355,-3.78237 1.82163,-5.59596 l 1.78141,0.70352 c -0.69088,1.74768 -1.27753,3.5402 -1.74769,5.36375 z m 1.82163,-5.59596 c 3.69501,-9.33579 10.30792,-17.35958 19.00572,-22.77736 l 1.01045,1.62507 c -8.34413,5.19745 -14.68843,12.89706 -18.23476,21.85581 z m 19.00572,-22.77736 0.76368,-0.10844 -0.25826,0.92078 z m 0.76368,-0.10844 2.93593,0.83303 -0.51691,1.84195 -2.93593,-0.83303 z m 2.93593,0.83303 h 0.003 l -0.26171,0.92117 z m 0.003,0 0.023,0.008 -0.52342,1.84194 -0.023,-0.008 z m -0.49315,1.84846 h -0.008 l 0.26171,-0.92078 z m 0.5081,-1.84194 c 0.19772,0.0544 0.41613,0.0912 0.64757,0.10729 l -0.14139,1.91628 c -0.32034,-0.023 -0.66252,-0.0847 -1.01428,-0.18163 z m 0.64757,0.10729 c 0.22684,0.0153 0.44296,0.0115 0.64068,-0.0115 l 0.22378,1.90096 c -0.34103,0.0402 -0.67977,0.0498 -1.00585,0.0268 z m 0.64068,-0.0115 c 1.0775,-0.12798 2.05959,-0.78092 2.5742,-1.79558 l 1.70783,0.86024 c -0.81387,1.60323 -2.36153,2.63321 -4.05825,2.8363 z m 4.2851,-0.9384 -0.003,0.003 -0.85372,-0.42993 z m -1.71396,-0.85373 0.0115,-0.023 1.71396,0.85372 -0.0115,0.023 z m 0.0115,-0.023 c 0.10231,-0.20538 0.18239,-0.41307 0.23796,-0.615 l 1.84232,0.50848 c -0.0916,0.33106 -0.21419,0.656 -0.36632,0.96024 z m 2.08335,-0.10997 -0.003,0.003 -0.92116,-0.25444 z m -1.84884,-0.50158 c 0.0533,-0.19888 0.0904,-0.41192 0.10652,-0.63225 l 1.91628,0.14101 c -0.023,0.32379 -0.0839,0.6583 -0.17396,0.99282 z m 2.0228,-0.49431 v 0.003 l -0.95833,-0.0705 z m -1.91628,-0.13488 c 0.0805,-1.08708 -0.3713,-2.17761 -1.26526,-2.87729 l 1.17521,-1.50513 c 1.41547,1.10662 2.13125,2.81867 2.00633,4.5173 z m -1.26526,-2.87729 -70.5756,-55.18748 1.17522,-1.50552 70.57559,55.18787 z m -70.5756,-55.18748 -0.37053,-0.67785 0.95795,-0.0747 z m -0.37053,-0.67785 -1.85497,-23.22798 1.91589,-0.14982 1.85536,23.22798 z m -1.85497,-23.22798 -0.008,-0.0812 1.9159,-0.15021 0.008,0.0816 z m 1.90938,-0.2345 v 0.003 l -0.95795,0.0751 z m -1.9159,0.15634 c -0.0621,-0.75372 -0.15327,-1.47065 -0.27052,-2.1439 l 1.88562,-0.32187 c 0.13795,0.79433 0.23987,1.56874 0.3008,2.30943 z m -0.27052,-2.1439 c -0.12186,-0.70198 -0.27819,-1.40243 -0.46365,-2.09561 l 1.84846,-0.49277 c 0.20002,0.74184 0.36708,1.49977 0.50081,2.26651 z m -0.46365,-2.09561 c -0.94722,-3.53521 -2.69299,-6.82864 -5.12043,-9.61015 l 1.43807,-1.25798 c 2.62325,3.00643 4.50888,6.56157 5.53082,10.37536"
     style="fill:#000000;fill-opacity:1;fill-rule:nonzero;stroke:none;stroke-width:3.8318"
     id="path638" />
  <path
     d="m 152.35103,278.88128 c -0.008,0.0192 0.0153,-0.0402 -0.0115,0.0383 l -1.83352,-0.55408 c 0.008,-0.0268 0.0153,-0.0421 0.0402,-0.11151 l 1.80324,0.62765 z m -0.0115,0.0383 -0.008,0.023 -0.90891,-0.30003 z m -0.008,0.023 c -0.17167,0.51576 -0.31038,1.0273 -0.41499,1.52697 l -1.8703,-0.38893 c 0.12492,-0.59738 0.28126,-1.17828 0.4671,-1.73772 z m -0.41499,1.52697 c -0.10844,0.51921 -0.18776,1.03957 -0.23565,1.54996 l -1.90058,-0.17166 c 0.0552,-0.59738 0.14561,-1.18939 0.26593,-1.76723 z m -0.23565,1.54996 c -0.24984,2.65467 0.27167,5.35264 1.53502,7.75441 l -1.69251,0.89051 c -1.43578,-2.72939 -2.02664,-5.79674 -1.74309,-8.81658 z m 1.53502,7.75441 0.0115,0.0192 -1.69212,0.89051 -0.0115,-0.0192 1.69251,-0.89051 z m 0.0115,0.0192 c 0.24753,0.47016 0.52266,0.92423 0.81886,1.35646 l -1.57909,1.0775 c -0.33796,-0.49315 -0.65064,-1.01006 -0.93189,-1.54345 z m 0.81886,1.35646 c 0.29888,0.43682 0.62151,0.85487 0.95833,1.24495 l -1.44497,1.24878 c -0.39085,-0.45292 -0.75908,-0.92844 -1.09245,-1.41623 z m 0.95833,1.24495 c 1.75305,2.02664 4.07627,3.52219 6.70028,4.26517 l -0.51691,1.84233 c -2.98459,-0.84529 -5.62968,-2.54814 -7.62834,-4.85872"
     style="fill:#000000;fill-opacity:1;fill-rule:nonzero;stroke:none;stroke-width:3.8318"
     id="path870" />
  <path
     d="m 161.0358,254.35087 -28.97147,19.79775 -1.0775,-1.57908 28.97185,-19.79775"
     style="fill:#000000;fill-opacity:1;fill-rule:nonzero;stroke:none;stroke-width:3.8318"
     id="path872" />
  <path
     d="m 144.13718,222.95081 v -0.008 h 1.9159 v 0.008 z m 0,-0.008 c -0.001,-0.78322 -0.31919,-1.49478 -0.83073,-2.00518 l 1.34688,-1.35569 c 0.86215,0.86139 1.39784,2.05078 1.39975,3.36087 z m -0.83073,-2.00518 c -0.51078,-0.50963 -1.22005,-0.82882 -1.99982,-0.83112 l 0.008,-1.9159 c 1.30127,0.004 2.483,0.53646 3.34017,1.39133 l -1.34687,1.35569 z m -1.99675,-2.74702 h 0.003 l -0.003,0.95795 z m 0,1.9159 h -0.0153 v -1.9159 h 0.0153 z m -0.0153,0 h -0.008 v -1.9159 h 0.008 z m -0.008,0 c -0.78322,0.001 -1.4944,0.31958 -2.00518,0.83112 l -1.35531,-1.34688 c 0.86139,-0.86253 2.05078,-1.39784 3.36049,-1.40014 z m -2.00518,0.83112 c -0.50925,0.5104 -0.82844,1.21966 -0.83074,1.99982 l -1.9159,-0.008 c 0.004,-1.30204 0.53646,-2.48377 1.39133,-3.33979 l 1.35531,1.34687 z m -2.74664,1.99637 v -0.003 l 0.95795,0.003 z m 1.9159,0 v 0.0153 h -1.9159 v -0.0153 z m 0,0.0153 v 0.008 h -1.9159 v -0.008 z m 0,0.008 c 0.001,0.78437 0.31919,1.49478 0.83074,2.00518 l -1.34688,1.35569 c -0.86216,-0.86139 -1.39784,-2.05193 -1.39976,-3.36087 z m 0.83074,2.00518 c 0.51078,0.50963 1.22004,0.82882 1.99981,0.83112 l -0.008,1.91589 c -1.30243,-0.004 -2.48416,-0.53645 -3.34018,-1.39132 l 1.34688,-1.35569 z m 1.99636,2.74701 h -0.003 l 0.003,-0.95794 z m 0,-1.91589 h 0.0153 v 1.91589 h -0.0153 z m 0.0153,0 h 0.008 v 1.91589 h -0.008 z m 0.008,0 c 0.78399,-0.001 1.49441,-0.31958 2.00518,-0.83112 l 1.35531,1.34688 c -0.86139,0.86253 -2.05154,1.39784 -3.36049,1.40013 z m 2.00518,-0.83112 c 0.50925,-0.5104 0.82844,-1.21966 0.83074,-1.99943 l 1.9159,0.008 c -0.004,1.3009 -0.53645,2.48301 -1.39133,3.3398 l -1.35531,-1.34688 z m 2.74664,-1.99637 v 0.003 l -0.95795,-0.003 z m -1.9159,0 v -0.0153 h 1.9159 v 0.0153"
     style="fill:#000000;fill-opacity:1;fill-rule:nonzero;stroke:none;stroke-width:3.8318"
     id="path876" />
  <path
     d="m 137.40624,313.69853 0.0674,-0.0345 0.85373,1.71396 -0.0674,0.0345 -0.85373,-1.71435 z m 0.92423,1.67718 -0.003,0.003 -0.42686,-0.85717 z m -0.86023,-1.70745 c 0.78436,-0.39659 1.52505,-0.85257 2.20941,-1.3599 l 1.13804,1.53386 c -0.77747,0.57554 -1.6105,1.09053 -2.48722,1.53349 z m 2.20941,-1.3599 c 0.68628,-0.5081 1.3281,-1.07406 1.91475,-1.68446 l 1.37715,1.32503 c -0.65601,0.68206 -1.37715,1.31852 -2.15386,1.89329 z m 1.91475,-1.68446 c 2.99915,-3.1187 4.59663,-7.4448 4.20693,-11.92839 l 1.9159,-0.16515 c 0.43874,5.03536 -1.36297,9.90136 -4.74568,13.41857"
     style="fill:#000000;fill-opacity:1;fill-rule:nonzero;stroke:none;stroke-width:3.8318"
     id="path878" />
  <path
     d="m 150.552,293.47315 -0.0671,0.0345 -0.85373,-1.71397 0.0671,-0.0345 0.85373,1.71434 z m -0.92845,-1.67718 0.008,-0.003 0.42687,0.85718 z m 0.86905,1.70745 c -0.27282,0.14024 -0.52265,0.29428 -0.74107,0.45828 l -1.14456,-1.52697 c 0.32686,-0.24562 0.66789,-0.46058 1.01658,-0.63876 z m -0.74107,0.45828 c -0.22799,0.17052 -0.4441,0.36403 -0.64067,0.57018 l -1.38367,-1.31623 c 0.26593,-0.27934 0.56251,-0.54335 0.87978,-0.78092 z m -0.64067,0.57018 c -0.99512,1.04493 -1.52391,2.49526 -1.39363,3.99848 l -1.9159,0.16515 c -0.17818,-2.05078 0.55293,-4.03757 1.92586,-5.47986"
     style="fill:#000000;fill-opacity:1;fill-rule:nonzero;stroke:none;stroke-width:3.8318"
     id="path880" />
  <path
     d="m 161.30977,321.58667 -0.0153,0.008 -0.71041,-1.77489 0.0153,-0.008 z m -0.0153,0.008 c -0.98707,0.39735 -2.01246,0.8177 -3.06084,1.25223 l -0.73417,-1.76608 c 0.99397,-0.41153 2.02242,-0.83303 3.0846,-1.26104 z m -3.06084,1.25223 c -1.02194,0.42379 -2.04081,0.85372 -3.05203,1.2848 l -0.7495,-1.75956 c 1.02195,-0.43644 2.04733,-0.86867 3.06736,-1.29132 z m -3.05203,1.2848 c -5.20626,2.22129 -10.36424,4.58398 -15.46513,7.08308 l -0.8384,-1.72048 c 5.11277,-2.50484 10.30026,-4.88133 15.55403,-7.12216"
     style="fill:#000000;fill-opacity:1;fill-rule:nonzero;stroke:none;stroke-width:3.8318"
     id="path882" />
  <path
     d="m 160.61008,319.80833 0.0345,-0.0115 0.68857,1.7814 -0.0345,0.0115 z m 0.73762,1.76531 -0.0153,0.003 -0.3441,-0.89051 z m -0.71922,-1.77488 c 1.08976,-0.44104 2.13124,-0.95259 3.1141,-1.52506 l 0.95833,1.65304 c -1.07673,0.62688 -2.19868,1.17866 -3.35321,1.6469 z m 3.1141,-1.52506 c 0.97213,-0.56481 1.91743,-1.21123 2.82403,-1.92701 l 1.19054,1.50551 c -0.94722,0.7472 -1.96916,1.44267 -3.05624,2.07454 z m 2.82403,-1.92701 c 4.58398,-3.61799 7.78047,-8.81965 8.85797,-14.70453 l 1.87912,0.34333 c -1.16334,6.35734 -4.60851,11.96939 -9.54655,15.86671"
     style="fill:#000000;fill-opacity:1;fill-rule:nonzero;stroke:none;stroke-width:3.8318"
     id="path884" />
  <path
     d="m 151.18769,323.86199 h 62.25868 v 1.91629 h -62.25868"
     style="fill:#000000;fill-opacity:1;fill-rule:nonzero;stroke:none;stroke-width:3.8318"
     id="path886" />
  <path
     d="m 164.57906,336.49543 v -0.008 h 1.9159 v 0.008 z m 0,-0.008 c -0.001,-1.72469 -0.70505,-3.29113 -1.83658,-4.42266 l 1.35531,-1.35569 c 1.47715,1.47716 2.39525,3.52257 2.39717,5.77835 z m -0.48549,-5.77835 h 0.004 l -0.67746,0.67784 0.67325,-0.67784 z m -1.34688,1.35569 c -1.12961,-1.1277 -2.6903,-1.82815 -4.41193,-1.8316 v -1.9159 c 2.24735,0.004 4.28395,0.91886 5.75881,2.39181 z m -4.41193,-1.8316 h -0.0153 v -1.9159 h 0.0153 z m -0.0153,0 h -0.008 v -1.9159 h 0.008 z m -0.008,0 c -1.72814,0.001 -3.29305,0.7016 -4.42151,1.83236 l -1.35569,-1.34687 c 1.47946,-1.48138 3.52449,-2.39909 5.7772,-2.40139 z m -4.42151,1.83236 c -1.1277,1.12962 -1.82815,2.69069 -1.8316,4.41347 h -1.9159 c 0.004,-2.2485 0.91886,-4.2851 2.39181,-5.76034 z m -1.8316,4.41347 v 0.0153 h -1.9159 v -0.0153 z m 0,0.0153 v 0.008 h -1.9159 v -0.008 z m 0,0.008 c 0.001,1.72699 0.70275,3.29343 1.83236,4.4219 l -1.34687,1.3553 c -1.48138,-1.48022 -2.39909,-3.52563 -2.40139,-5.7772 z m 1.83236,4.4219 c 1.12885,1.12731 2.69069,1.82776 4.41232,1.83121 v 1.9159 c -2.24735,-0.004 -4.2851,-0.91886 -5.75919,-2.39181 z m 4.41232,1.83121 h 0.0153 v 1.9159 h -0.0153 z m 0.0153,0 h 0.008 v 1.9159 h -0.008 z m 0.008,0 c 1.72393,-10e-4 3.28998,-0.70505 4.4219,-1.83658 l 1.35569,1.35531 c -1.47754,1.47716 -3.52257,2.39526 -5.77759,2.39717 z m 5.77759,-0.48549 v 0.004 l -0.67785,-0.67785 0.67785,0.67363 z m -1.35569,-1.34687 c 1.12731,-1.12962 1.82815,-2.69069 1.83121,-4.41194 h 1.9159 c -0.004,2.24697 -0.91886,4.28357 -2.39142,5.75881 z m 1.83121,-4.41194 v -0.0153 h 1.9159 v 0.0153"
     style="fill:#000000;fill-opacity:1;fill-rule:nonzero;stroke:none;stroke-width:3.8318"
     id="path890" />
  <path
     d="m 193.30107,336.49543 v -0.008 h 1.9159 v 0.008 z m 0,-0.008 c -0.001,-1.72469 -0.70505,-3.29113 -1.83696,-4.42266 l 1.35569,-1.35569 c 1.47716,1.47716 2.39487,3.52257 2.39717,5.77835 z m -0.48549,-5.77835 h 0.004 l -0.67785,0.67784 0.67363,-0.67784 z m -1.34687,1.35569 c -1.12962,-1.1277 -2.69069,-1.82815 -4.41232,-1.8316 v -1.9159 c 2.24735,0.004 4.28395,0.91886 5.75919,2.39181 z m -4.41232,-1.8316 h -0.0153 v -1.9159 h 0.0153 z m -0.0153,0 h -0.008 v -1.9159 h 0.008 z m -0.008,0 c -1.72814,0.001 -3.29458,0.70275 -4.42305,1.83236 l -1.3553,-1.34687 c 1.48022,-1.48138 3.52449,-2.39909 5.77835,-2.40139 z m -4.42305,1.83236 c -1.12731,1.12962 -1.82815,2.69069 -1.83121,4.41347 h -1.9159 c 0.004,-2.2485 0.91886,-4.2851 2.39181,-5.76034 z m -1.83121,4.41347 v 0.0153 h -1.9159 v -0.0153 z m 0,0.0153 v 0.008 h -1.9159 v -0.008 z m 0,0.008 c 0.001,1.72699 0.70275,3.29343 1.83236,4.4219 l -1.34687,1.3553 c -1.48138,-1.48022 -2.39948,-3.52563 -2.40139,-5.7772 z m 1.83236,4.4219 c 1.12962,1.12731 2.69031,1.82776 4.41309,1.83121 v 1.9159 c -2.2485,-0.004 -4.28472,-0.91886 -5.75996,-2.39181 z m 4.41309,1.83121 h 0.0153 v 1.9159 h -0.0153 z m 0.0153,0 h 0.008 v 1.9159 h -0.008 z m 0.008,0 c 1.72354,-10e-4 3.28998,-0.70505 4.42151,-1.83658 l 1.35569,1.35531 c -1.47716,1.47716 -3.52257,2.39526 -5.7772,2.39717 z m 5.7772,-0.48549 v 0.004 l -0.67785,-0.67785 0.67785,0.67363 z m -1.35569,-1.34687 c 1.1277,-1.12962 1.82815,-2.69069 1.8316,-4.41194 h 1.9159 c -0.004,2.24697 -0.91887,4.28357 -2.39181,5.75881 z m 1.8316,-4.41194 v -0.0153 h 1.9159 v 0.0153"
     style="fill:#000000;fill-opacity:1;fill-rule:nonzero;stroke:none;stroke-width:3.8318"
     id="path894" />
  <path
     d="m 172.38213,310.9791 c 0.33797,0.10078 0.67555,0.19658 1.01007,0.28662 l -0.49316,1.84846 c -0.35597,-0.0954 -0.71463,-0.19733 -1.06409,-0.30194 z m 1.01007,0.28662 c 0.53147,0.14216 1.04301,0.27053 1.52965,0.38012 l -0.41958,1.86378 c -0.55829,-0.12606 -1.09475,-0.25826 -1.60323,-0.39544 z m 1.52965,0.38012 c 0.51461,0.11495 1.02961,0.22148 1.5423,0.31612 l -0.34333,1.87911 c -0.54297,-0.10001 -1.08516,-0.21189 -1.61855,-0.33145 z m 1.5423,0.31612 c 2.40139,0.44104 4.85719,0.65715 7.32525,0.64298 l 0.008,1.9159 c -2.56462,0.0153 -5.13652,-0.21382 -7.67509,-0.67977"
     style="fill:#000000;fill-opacity:1;fill-rule:nonzero;stroke:none;stroke-width:3.8318"
     id="path896" />
  <path
     d="m 183.7894,312.60494 c 0.33873,-10e-4 0.66367,-0.0192 0.96216,-0.0491 l 0.19543,1.90095 c -0.39736,0.0402 -0.78284,0.0621 -1.15108,0.064 l -0.008,-1.9159 z m 0.96216,-0.0491 h 0.004 l 0.0935,0.95067 -0.0977,-0.95067 z m 0.004,0 c 0.5399,-0.0529 1.0775,-0.15289 1.60245,-0.29083 l 0.48626,1.84846 c -0.61347,0.16208 -1.25108,0.27818 -1.90172,0.34332 z m 1.60245,-0.29083 c 0.51576,-0.13603 1.02616,-0.31613 1.5174,-0.53224 l 0.77095,1.75075 c -0.57553,0.25443 -1.18057,0.46594 -1.80209,0.62995 z m 1.5174,-0.53224 c 2.31555,-1.02117 4.22609,-2.88266 5.27983,-5.28865 l 1.75075,0.76253 c -1.25108,2.85775 -3.51606,5.06679 -6.25963,6.27687"
     style="fill:#000000;fill-opacity:1;fill-rule:nonzero;stroke:none;stroke-width:3.8318"
     id="path898" />
  <path
     d="m 224.06697,316.34132 -62.8779,-17.83817 0.51691,-1.84233 62.8779,17.83856"
     style="fill:#000000;fill-opacity:1;fill-rule:nonzero;stroke:none;stroke-width:3.8318"
     id="path900" />
  <path
     d="m 115.39256,347.09342 h 87.55047 v 1.9159 h -87.55047"
     style="fill:#000000;fill-opacity:1;fill-rule:nonzero;stroke:none;stroke-width:3.8318"
     id="path902" />
  <path
     d="m 135.603,366.12098 h 64.91565 v 1.9159 H 135.603"
     style="fill:#000000;fill-opacity:1;fill-rule:nonzero;stroke:none;stroke-width:3.8318"
     id="path904" />
  <path
     d="m 165.95084,359.63685 -7.75425,7.62624 -1.34037,-1.36182 7.75426,-7.62662"
     style="fill:#000000;fill-opacity:1;fill-rule:nonzero;stroke:none;stroke-width:3.8318"
     id="path906" />
  <path
     d="m 151.78162,358.27465 7.75533,7.62662 -1.34036,1.36182 -7.75533,-7.62624"
     style="fill:#000000;fill-opacity:1;fill-rule:nonzero;stroke:none;stroke-width:3.8318"
     id="path908" />
  <path
     d="m 153.12198,359.63685 -7.75521,7.62635 -1.34037,-1.36182 7.75522,-7.62673"
     style="fill:#000000;fill-opacity:1;fill-rule:nonzero;stroke:none;stroke-width:3.8318"
     id="path910" />
  <path
     d="m 138.95165,358.27465 7.75548,7.62673 -1.34036,1.36182 -7.75549,-7.62635"
     style="fill:#000000;fill-opacity:1;fill-rule:nonzero;stroke:none;stroke-width:3.8318"
     id="path912" />
  <path
     d="m 178.78086,359.63685 -7.75533,7.62635 -1.34037,-1.36182 7.75533,-7.62673"
     style="fill:#000000;fill-opacity:1;fill-rule:nonzero;stroke:none;stroke-width:3.8318"
     id="path914" />
  <path
     d="m 164.61048,358.27465 7.75541,7.62673 -1.34036,1.36182 -7.75541,-7.62635"
     style="fill:#000000;fill-opacity:1;fill-rule:nonzero;stroke:none;stroke-width:3.8318"
     id="path916" />
  <path
     d="m 191.61079,359.63693 -7.75533,7.62639 -1.34036,-1.36182 7.75533,-7.62677"
     style="fill:#000000;fill-opacity:1;fill-rule:nonzero;stroke:none;stroke-width:3.8318"
     id="path918" />
  <path
     d="m 177.44049,358.27465 7.75533,7.62685 -1.34036,1.36182 -7.75533,-7.62647"
     style="fill:#000000;fill-opacity:1;fill-rule:nonzero;stroke:none;stroke-width:3.8318"
     id="path920" />
  <path
     d="m 201.90231,362.13246 -5.21703,5.13086 -1.34036,-1.36182 5.21703,-5.13086"
     style="fill:#000000;fill-opacity:1;fill-rule:nonzero;stroke:none;stroke-width:3.8318"
     id="path922" />
  <path
     d="m 190.27043,358.27473 7.75521,7.62677 -1.34036,1.36182 -7.75522,-7.62639"
     style="fill:#000000;fill-opacity:1;fill-rule:nonzero;stroke:none;stroke-width:3.8318"
     id="path924" />
  <path
     d="m 165.95081,349.9155 -7.75395,7.62643 -1.34037,-1.36182 7.75395,-7.62681"
     style="fill:#000000;fill-opacity:1;fill-rule:nonzero;stroke:none;stroke-width:3.8318"
     id="path926" />
  <path
     d="m 151.78158,348.5533 7.75564,7.62681 -1.34036,1.36182 -7.75564,-7.62643"
     style="fill:#000000;fill-opacity:1;fill-rule:nonzero;stroke:none;stroke-width:3.8318"
     id="path928" />
  <path
     d="m 153.12194,349.9155 -7.7551,7.62643 -1.34036,-1.36182 7.7551,-7.62681"
     style="fill:#000000;fill-opacity:1;fill-rule:nonzero;stroke:none;stroke-width:3.8318"
     id="path930" />
  <path
     d="m 138.96261,348.54246 7.7446,7.63765 -1.34037,1.36182 -7.7446,-7.63727"
     style="fill:#000000;fill-opacity:1;fill-rule:nonzero;stroke:none;stroke-width:3.8318"
     id="path932" />
  <path
     d="m 178.78078,349.9155 -7.75506,7.62643 -1.34037,-1.36182 7.75507,-7.62681"
     style="fill:#000000;fill-opacity:1;fill-rule:nonzero;stroke:none;stroke-width:3.8318"
     id="path934" />
  <path
     d="m 164.61044,348.5533 7.75564,7.62681 -1.34036,1.36182 -7.75564,-7.62643"
     style="fill:#000000;fill-opacity:1;fill-rule:nonzero;stroke:none;stroke-width:3.8318"
     id="path936" />
  <path
     d="m 191.61083,349.9155 -7.7551,7.62643 -1.34037,-1.36182 7.7551,-7.62681"
     style="fill:#000000;fill-opacity:1;fill-rule:nonzero;stroke:none;stroke-width:3.8318"
     id="path938" />
  <path
     d="m 177.44042,348.5533 7.75567,7.62681 -1.34036,1.36182 -7.75568,-7.62643"
     style="fill:#000000;fill-opacity:1;fill-rule:nonzero;stroke:none;stroke-width:3.8318"
     id="path940" />
  <path
     d="m 203.31241,351.02523 -6.62709,6.5167 -1.34037,-1.36182 6.6271,-6.51708"
     style="fill:#000000;fill-opacity:1;fill-rule:nonzero;stroke:none;stroke-width:3.8318"
     id="path942" />
  <path
     d="m 190.27046,348.5533 7.75522,7.62681 -1.34036,1.36182 -7.75522,-7.62643"
     style="fill:#000000;fill-opacity:1;fill-rule:nonzero;stroke:none;stroke-width:3.8318"
     id="path944" />
  <path
     d="m 133.0265,228.95601 -8.38513,0.49775 -0.11303,-1.91628 8.3855,-0.49737"
     style="fill:#000000;fill-opacity:1;fill-rule:nonzero;stroke:none;stroke-width:3.8318"
     id="path946" />
  <path
     d="m 138.24464,315.42016 -0.0268,0.0115 -0.82307,-1.7289 0.0268,-0.0115 0.82346,1.72891 z m -0.8656,-1.70822 0.0153,-0.008 0.41153,0.86445 z m 0.85372,1.71397 c -1.62813,0.81349 -3.14782,1.76799 -4.54336,2.83476 l -1.16027,-1.51854 c 1.50015,-1.14686 3.12177,-2.16688 4.84991,-3.03019 z m -4.54336,2.83476 c -1.39707,1.06869 -2.68303,2.26268 -3.84521,3.55629 l -1.42275,-1.27982 c 1.23384,-1.3737 2.60869,-2.64777 4.10769,-3.79501 z m -3.84521,3.55629 c -5.95883,6.63323 -8.59281,15.89085 -6.58763,25.00479 l -1.8703,0.41077 c -2.14121,-9.72894 0.67325,-19.6123 7.03518,-26.69538"
     style="fill:#000000;fill-opacity:1;fill-rule:nonzero;stroke:none;stroke-width:3.8318"
     id="path948" />
  <path
     d="m 139.71529,331.2133 -0.11726,0.0575 -0.83839,-1.72048 0.11725,-0.0575 z m -0.96332,-1.65955 0.008,-0.003 0.41919,0.86024 z m 0.85373,1.71396 c -0.81694,0.40847 -1.58905,0.87863 -2.30713,1.40014 l -1.1231,-1.54881 c 0.80583,-0.5855 1.66837,-1.11122 2.5765,-1.56529 z m -2.30713,1.40014 c -0.72344,0.52572 -1.39669,1.10547 -2.01054,1.72699 l -1.36182,-1.34036 c 0.69393,-0.7039 1.44765,-1.35339 2.24926,-1.93544 z m -2.01054,1.72699 c -3.1597,3.19764 -4.92463,7.63678 -4.69204,12.29548 l -1.91628,0.0889 c -0.25942,-5.19591 1.71396,-10.15005 5.2465,-13.72473"
     style="fill:#000000;fill-opacity:1;fill-rule:nonzero;stroke:none;stroke-width:3.8318"
     id="path950" />
  <path
     d="m 117.24612,337.8589 c 0.13488,0.46058 0.29313,0.92078 0.47016,1.37409 l -1.78102,0.69508 c -0.19351,-0.49545 -0.33605,-1.68292 -0.48932,-2.20405 z m 0.47016,1.37409 c 0.17626,0.45291 0.37283,0.89587 0.58358,1.32273 l -1.71396,0.84491 c -0.23796,-0.48319 -0.45752,-0.97634 -0.65064,-1.47256 z m 0.58358,1.32273 c 1.0913,2.21248 2.66655,4.17321 4.61847,5.72433 l -1.19054,1.4967 c -2.17148,-1.72699 -3.92568,-3.9092 -5.14189,-6.37612"
     style="fill:#000000;fill-opacity:1;fill-rule:nonzero;stroke:none;stroke-width:3.8318"
     id="path952" />
  <path
     d="m 117.19657,338.48644 -2.19408,5.04954 -1.75075,-0.76253 2.19408,-5.04954"
     style="fill:#000000;fill-opacity:1;fill-rule:nonzero;stroke:none;stroke-width:3.8318"
     id="path954" />
  <path
     d="m 123.17839,347.44978 -1.69863,-0.884 0.24791,1.21097 z m -1.69863,-0.884 c 0.2368,-0.45177 0.46058,-0.89396 0.67133,-1.32197 l 1.72048,0.83878 c -0.23144,0.47132 -0.46365,0.93075 -0.69318,1.36719 z m 0.67133,-1.32197 c 0.24983,-0.50924 0.46595,-0.9591 0.63953,-1.33806 l 1.7358,0.7928 c -0.24332,0.53032 -0.4625,0.99282 -0.65485,1.38404 z m 0.63953,-1.33806 c 1.05604,-2.29716 1.96303,-4.67288 2.71253,-7.10454 l 1.82661,0.56021 c -0.7698,2.50063 -1.70745,4.95298 -2.80334,7.33713"
     style="fill:#000000;fill-opacity:1;fill-rule:nonzero;stroke:none;stroke-width:3.8318"
     id="path956" />
  <path
     d="m 125.543,337.46641 -0.0399,-0.6652 1.7906,-0.10576 z m 3.15625,9.45726 1.86379,-0.43414 0.0345,0.20079 z m 0,0 c -0.11725,-0.50043 -0.23144,-0.95986 -0.33567,-1.36182 l 1.84885,-0.48012 c 0.13449,0.51576 0.25213,0.98515 0.35061,1.4078 z m -0.33567,-1.36182 c -0.0996,-0.38126 -0.22569,-0.83303 -0.37475,-1.35224 l 1.84233,-0.52381 c 0.11304,0.39238 0.24102,0.86024 0.38127,1.39593 z m 1.46337,-1.88026 0.004,0.004 -0.92117,0.2621 0.91695,-0.26631 z m -1.83352,0.53224 c -0.66252,-2.2895 -1.4829,-4.54567 -2.45043,-6.74742 l 1.75075,-0.77096 c 0.99396,2.26038 1.84117,4.59663 2.5332,6.98614"
     style="fill:#000000;fill-opacity:1;fill-rule:nonzero;stroke:none;stroke-width:3.8318"
     id="path958" />
  <path
     d="m 134.64505,381.61639 v -14.53746 h 1.9159 v 14.53746"
     style="fill:#000000;fill-opacity:1;fill-rule:nonzero;stroke:none;stroke-width:3.8318"
     id="path960" />
  <path
     d="m 134.69716,367.38624 -6.51061,-19.02756 1.81168,-0.61462 6.51061,19.02756"
     style="fill:#000000;fill-opacity:1;fill-rule:nonzero;stroke:none;stroke-width:3.8318"
     id="path962" />
  <path
     d="m 140.29201,359.63685 -5.08637,5.00161 -1.34036,-1.3622 5.08637,-5.00161"
     style="fill:#000000;fill-opacity:1;fill-rule:nonzero;stroke:none;stroke-width:3.8318"
     id="path964" />
  <path
     d="m 140.30297,349.90466 -7.5857,7.46066 -1.34036,-1.3622 7.5857,-7.46066"
     style="fill:#000000;fill-opacity:1;fill-rule:nonzero;stroke:none;stroke-width:3.8318"
     id="path966" />
</svg>
